name D:\school\WTK\thesis\model\3dpredictsim\Results\MidTarsalJoint\Fal_s1_bCst_PF_Natali2010_ls150_MT_k300_MTP_Mf1_spx10_ig23_v0.mot
datacolumns 128
datarows 4
range 0.52850860 0.56021911
endheader
time	pelvis_tilt	pelvis_list	pelvis_rotation	pelvis_tx	pelvis_ty	pelvis_tz	hip_flexion_l	hip_adduction_l	hip_rotation_l	hip_flexion_r	hip_adduction_r	hip_rotation_r	knee_angle_l	knee_angle_r	ankle_angle_l	ankle_angle_r	subtalar_angle_l	subtalar_angle_r	mtj_angle_l	mtj_angle_r	mtp_angle_l	mtp_angle_r	lumbar_extension	lumbar_bending	lumbar_rotation	arm_flex_l	arm_add_l	arm_rot_l	arm_flex_r	arm_add_r	arm_rot_r	elbow_flex_l	elbow_flex_r	pro_sup_l	pro_sup_r	glut_med1_l/activation	glut_med2_l/activation	glut_med3_l/activation	glut_min1_l/activation	glut_min2_l/activation	glut_min3_l/activation	semimem_l/activation	semiten_l/activation	bifemlh_l/activation	bifemsh_l/activation	sar_l/activation	add_long_l/activation	add_brev_l/activation	add_mag1_l/activation	add_mag2_l/activation	add_mag3_l/activation	tfl_l/activation	pect_l/activation	grac_l/activation	glut_max1_l/activation	glut_max2_l/activation	glut_max3_l/activation	iliacus_l/activation	psoas_l/activation	quad_fem_l/activation	gem_l/activation	peri_l/activation	rect_fem_l/activation	vas_med_l/activation	vas_int_l/activation	vas_lat_l/activation	med_gas_l/activation	lat_gas_l/activation	soleus_l/activation	tib_post_l/activation	flex_dig_l/activation	flex_hal_l/activation	tib_ant_l/activation	per_brev_l/activation	per_long_l/activation	per_tert_l/activation	ext_dig_l/activation	ext_hal_l/activation	ercspn_l/activation	intobl_l/activation	extobl_l/activation	glut_med1_r/activation	glut_med2_r/activation	glut_med3_r/activation	glut_min1_r/activation	glut_min2_r/activation	glut_min3_r/activation	semimem_r/activation	semiten_r/activation	bifemlh_r/activation	bifemsh_r/activation	sar_r/activation	add_long_r/activation	add_brev_r/activation	add_mag1_r/activation	add_mag2_r/activation	add_mag3_r/activation	tfl_r/activation	pect_r/activation	grac_r/activation	glut_max1_r/activation	glut_max2_r/activation	glut_max3_r/activation	iliacus_r/activation	psoas_r/activation	quad_fem_r/activation	gem_r/activation	peri_r/activation	rect_fem_r/activation	vas_med_r/activation	vas_int_r/activation	vas_lat_r/activation	med_gas_r/activation	lat_gas_r/activation	soleus_r/activation	tib_post_r/activation	flex_dig_r/activation	flex_hal_r/activation	tib_ant_r/activation	per_brev_r/activation	per_long_r/activation	per_tert_r/activation	ext_dig_r/activation	ext_hal_r/activation	ercspn_r/activation	intobl_r/activation	extobl_r/activation	
          0.52850860	         -2.92976558	          0.62458246	         -3.35925916	          0.66063575	          0.92335645	          0.00286051	         25.79820886	          2.49877513	         -2.21824735	        -15.69674543	          1.32888291	          7.31935877	         -7.05905103	         -8.00535313	          4.05147079	         -0.35437871	         -0.67571474	         10.34989473	          0.33526463	          4.59845407	          4.19975605	         10.85417345	         -1.94948276	          0.40957631	          1.58089138	         -5.01364249	        -13.45347355	          6.38296389	          4.28607651	        -13.45538507	         12.77178630	         18.14707855	         29.24042004	         86.51662706	         86.51662706	          0.05880830	          0.05557912	          0.05000113	          0.05880785	          0.05880647	          0.05001968	          0.13808576	          0.06832305	          0.15984229	          0.05010463	          0.05000124	          0.15501617	          0.27196097	          0.14881701	          0.16976547	          0.12571449	          0.05000143	          0.06215114	          0.16404457	          0.05001730	          0.06348924	          0.12676377	          0.05000066	          0.05000051	          0.26836851	          0.09503396	          0.08912441	          0.05000017	          0.05000633	          0.05000369	          0.05000279	          0.05000106	          0.05001933	          0.05000049	          0.07818792	          0.05244589	          0.05880905	          0.49951232	          0.21317196	          0.14631054	          0.17627160	          0.56902449	          0.07125732	          0.05000136	          0.10371478	          0.09839612	          0.32422237	          0.18358564	          0.11254587	          0.31668113	          0.26861113	          0.18259312	          0.05000275	          0.05000080	          0.05000071	          0.05400858	          0.11333809	          0.05000024	          0.05000027	          0.05000050	          0.05000154	          0.05000090	          0.39317533	          0.05000124	          0.05000110	          0.05879495	          0.05009489	          0.05000263	          0.38690664	          0.68803208	          0.05000091	          0.05000369	          0.09568659	          0.16648501	          0.05000176	          0.05000103	          0.05000093	          0.28869544	          0.37790170	          0.34189946	          0.34847770	          0.30863053	          0.39412929	          0.05000028	          0.15087827	          0.20772311	          0.05000059	          0.05000026	          0.05501239	          0.05000006	          0.05000009	          0.07503254	
          0.53907877	         -2.92978571	          0.68078058	         -3.54061217	          0.67622072	          0.92320511	          0.00263623	         25.26653987	          2.86946678	         -2.04528301	        -15.63821444	          1.11142093	          7.23233312	         -7.48134863	         -9.65451115	          3.34423191	         -0.87876497	         -0.99792552	         11.26932027	          0.40639232	          3.62699954	          4.04057750	         13.12572284	         -1.78221251	          0.21529955	          1.64134419	         -5.71121141	        -13.44971164	          6.09960236	          4.06376906	        -13.46407703	         13.10355517	         17.89908990	         30.09187077	         86.51662706	         86.51662706	          0.05000009	          0.05000029	          0.08700884	          0.05000021	          0.05000030	          0.05000041	          0.11740303	          0.05808966	          0.13590083	          0.05032171	          0.06946516	          0.14159901	          0.32442240	          0.35504992	          0.22047615	          0.11049516	          0.05000060	          0.07302518	          0.14004679	          0.05880704	          0.05880876	          0.14470604	          0.06108097	          0.06917500	          0.57080924	          0.13548611	          0.07577740	          0.06920259	          0.05002603	          0.05877717	          0.05880747	          0.07061369	          0.07838511	          0.07445844	          0.06647858	          0.05000167	          0.05000137	          0.55779804	          0.23357369	          0.15539111	          0.19538140	          0.58641001	          0.06066334	          0.05000002	          0.08818015	          0.08365813	          0.27565972	          0.15608784	          0.09568856	          0.26924816	          0.22837813	          0.15524410	          0.05011962	          0.05000269	          0.05000301	          0.05000152	          0.09636243	          0.07560053	          0.05880894	          0.06393097	          0.05032436	          0.05880812	          0.33428552	          0.05097127	          0.05864246	          0.05001024	          0.05000520	          0.05004028	          0.32895495	          0.60162092	          0.06917079	          0.07555814	          0.08135470	          0.16864985	          0.05000548	          0.11345249	          0.11666518	          0.24545397	          0.32129878	          0.29068913	          0.29628196	          0.26240436	          0.33509702	          0.05000011	          0.18677004	          0.19930097	          0.05000046	          0.05000022	          0.05000165	          0.05156828	          0.07358341	          0.08135465	
          0.54964894	         -2.92651743	          0.76491194	         -3.69662689	          0.69204564	          0.92310230	          0.00243184	         24.68010092	          3.13839217	         -1.82700898	        -15.51211286	          0.87303376	          7.12341219	         -8.10841009	        -11.39278337	          2.57455362	         -1.54265227	         -1.31329462	         12.17101582	          0.41273301	          2.50367064	          3.88534955	         15.62855352	         -1.59971500	         -0.01770872	          1.69173996	         -6.41861222	        -13.45938002	          5.84937778	          3.77821209	        -13.46773249	         13.40022943	         17.66999918	         30.93410654	         86.51662706	         86.51662706	          0.31971897	          0.05000058	          0.23978866	          0.20025794	          0.05000245	          0.29051276	          0.11730092	          0.05000094	          0.12813521	          0.05000169	          0.05906142	          0.12039022	          0.27584429	          0.30187005	          0.18745366	          0.16343193	          0.05000454	          0.06922659	          0.11907209	          0.05000034	          0.05000047	          0.12303257	          0.05880959	          0.05881397	          0.48531212	          0.11519289	          0.09566946	          0.05883731	          0.05010190	          0.05002224	          0.05001169	          0.06003704	          0.06664448	          0.06330590	          0.05880838	          0.05002533	          0.05880762	          0.56749971	          0.27603395	          0.14726948	          0.45355584	          0.64030041	          0.05157714	          0.05000021	          0.11254417	          0.07112764	          0.27372081	          0.13270870	          0.08135615	          0.22892001	          0.19417135	          0.13199139	          0.05000364	          0.05000276	          0.05001933	          0.05000093	          0.08192949	          0.07887757	          0.05000206	          0.05435913	          0.05002650	          0.05000510	          0.28421779	          0.05000506	          0.05881025	          0.05881592	          0.05881191	          0.05881007	          0.27968348	          0.58033692	          0.05881182	          0.06424138	          0.06916926	          0.14338917	          0.06947175	          0.09646062	          0.09919180	          0.20868929	          0.27317393	          0.24714902	          0.25190418	          0.22310112	          0.28490568	          0.05000023	          0.25756463	          0.19255807	          0.05000109	          0.11478162	          0.05000087	          0.05750694	          0.06256193	          0.06916919	
          0.56021911	         -2.92098104	          0.86848169	         -3.82241407	          0.70795677	          0.92305812	          0.00221636	         24.06774517	          3.35353555	         -1.60077426	        -15.27935105	          0.62741005	          7.00856089	         -8.68587038	        -13.27725965	          1.62853028	         -2.36848644	         -1.60485597	         13.04671291	          0.67923657	          1.29992497	          3.81167092	         18.27173502	         -1.41759966	         -0.27848206	          1.73573437	         -7.09837626	        -13.47675417	          5.63875994	          3.45397438	        -13.47259729	         13.67444325	         17.43674122	         31.74999844	         86.51662706	         86.51662706	          0.38018027	          0.30022158	          0.30836241	          0.31211100	          0.31965396	          0.24699998	          0.09973166	          0.09580542	          0.10894333	          0.05034506	          0.05021551	          0.10235798	          0.23452782	          0.25665596	          0.17621735	          0.19510653	          0.05000134	          0.05885828	          0.10123819	          0.24544423	          0.19280595	          0.20243371	          0.05000105	          0.05000477	          0.41262101	          0.09793931	          0.08134022	          0.05002460	          0.05000585	          0.05008987	          0.05001492	          0.05104457	          0.05666235	          0.05382379	          0.05000005	          0.05000039	          0.05000035	          0.73629286	          0.30167885	          0.15381938	          0.67944417	          0.74561500	          0.20215307	          0.07854029	          0.09568714	          0.06047399	          0.23272284	          0.11283132	          0.06917045	          0.22188316	          0.16508809	          0.11222150	          0.05001399	          0.05000062	          0.05000037	          0.05000101	          0.06965822	          0.15886443	          0.05957808	          0.05000157	          0.05000725	          0.05000645	          0.30048530	          0.06920737	          0.05000264	          0.05000770	          0.05000385	          0.05000247	          0.23779207	          0.54966182	          0.05000292	          0.05461940	          0.05880900	          0.12191238	          0.05910651	          0.10708827	          0.12859460	          0.17743132	          0.23225732	          0.21013045	          0.21417340	          0.18968468	          0.24223197	          0.15735457	          0.21898636	          0.16371644	          0.34063696	          0.20108449	          0.05000029	          0.08740748	          0.05319126	          0.05880889	
